<svg xmlns="http://www.w3.org/2000/svg" width="640" height="360" viewBox="0 0 640 360"><defs><linearGradient id="sky" x2="0" y2="1"><stop stop-color="#80b1bd"/><stop offset="1" stop-color="#cad7ac"/></linearGradient><linearGradient id="shade" x2="1" y2="1"><stop stop-color="#071015" stop-opacity=".5"/><stop offset="1" stop-color="#071015" stop-opacity="0"/></linearGradient></defs><rect width="640" height="360" fill="url(#sky)"/><circle cx="43" cy="19" r="1.6" fill="#f5f4d4" opacity=".35"/><circle cx="170" cy="56" r="0.9" fill="#f5f4d4" opacity=".35"/><circle cx="297" cy="93" r="0.9" fill="#f5f4d4" opacity=".35"/><circle cx="424" cy="130" r="1.6" fill="#f5f4d4" opacity=".35"/><circle cx="551" cy="167" r="0.9" fill="#f5f4d4" opacity=".35"/><circle cx="38" cy="14" r="0.9" fill="#f5f4d4" opacity=".35"/><circle cx="165" cy="51" r="1.6" fill="#f5f4d4" opacity=".35"/><circle cx="292" cy="88" r="0.9" fill="#f5f4d4" opacity=".35"/><circle cx="419" cy="125" r="0.9" fill="#f5f4d4" opacity=".35"/><circle cx="546" cy="162" r="1.6" fill="#f5f4d4" opacity=".35"/><circle cx="33" cy="9" r="0.9" fill="#f5f4d4" opacity=".35"/><circle cx="160" cy="46" r="0.9" fill="#f5f4d4" opacity=".35"/><circle cx="287" cy="83" r="1.6" fill="#f5f4d4" opacity=".35"/><circle cx="414" cy="120" r="0.9" fill="#f5f4d4" opacity=".35"/><circle cx="541" cy="157" r="0.9" fill="#f5f4d4" opacity=".35"/><circle cx="28" cy="4" r="1.6" fill="#f5f4d4" opacity=".35"/><circle cx="155" cy="41" r="0.9" fill="#f5f4d4" opacity=".35"/><circle cx="490" cy="82" r="37" fill="#f0d99d"/><path d="M0 255 143 166 298 194 404 156 640 249V360H0" fill="#5b8b83"/><path d="m122 219 154-81 173 79-155 86z" fill="#82a457"/><path d="m122 219 172 84v43l-172-76z" fill="#5c6744"/><path d="m294 303 155-86v51l-155 78z" fill="#766a43"/><path d="m222 197 57-29 51 26-52 31z" fill="#d9c290"/><path d="m222 197 56 28v39l-56-30z" fill="#ba9f68"/><path d="m278 225 52-31v41l-52 29z" fill="#e1cd95"/><path d="m215 197 63-62 57 59-57 31z" fill="#d0b46c"/><path d="M176 214v-68m208 75v-82" stroke="#5b6240" stroke-width="14"/><path d="m136 162 42-74 38 74zM342 161l41-88 44 88z" fill="#427757"/><path d="M0 326q160-37 240 14t200-3 200-5" fill="none" stroke="#c0e0d3" stroke-width="3"/><rect width="640" height="360" fill="url(#shade)"/><text x="28" y="117" fill="#f5f4d4" font-family="Arial,sans-serif" font-size="25" font-weight="700" letter-spacing="1">A LITTLE WORLD</text><text x="30" y="140" fill="#f5f4d4" opacity=".7" font-family="Arial,sans-serif" font-size="9" letter-spacing="3">BUILD SOMETHING BEAUTIFUL</text><text x="609" y="23" text-anchor="end" fill="#fff" opacity=".4" font-family="Arial,sans-serif" font-size="8" letter-spacing="1">LIVESCOPE ORIGINAL · SAMPLE</text></svg>