<svg xmlns="http://www.w3.org/2000/svg" width="640" height="360" viewBox="0 0 640 360"><defs><linearGradient id="sky" x2="0" y2="1"><stop stop-color="#332b52"/><stop offset="1" stop-color="#785a83"/></linearGradient><linearGradient id="shade" x2="1" y2="1"><stop stop-color="#071015" stop-opacity=".5"/><stop offset="1" stop-color="#071015" stop-opacity="0"/></linearGradient></defs><rect width="640" height="360" fill="url(#sky)"/><circle cx="43" cy="19" r="1.6" fill="#e5d9ef" opacity=".35"/><circle cx="170" cy="56" r="0.9" fill="#e5d9ef" opacity=".35"/><circle cx="297" cy="93" r="0.9" fill="#e5d9ef" opacity=".35"/><circle cx="424" cy="130" r="1.6" fill="#e5d9ef" opacity=".35"/><circle cx="551" cy="167" r="0.9" fill="#e5d9ef" opacity=".35"/><circle cx="38" cy="14" r="0.9" fill="#e5d9ef" opacity=".35"/><circle cx="165" cy="51" r="1.6" fill="#e5d9ef" opacity=".35"/><circle cx="292" cy="88" r="0.9" fill="#e5d9ef" opacity=".35"/><circle cx="419" cy="125" r="0.9" fill="#e5d9ef" opacity=".35"/><circle cx="546" cy="162" r="1.6" fill="#e5d9ef" opacity=".35"/><circle cx="33" cy="9" r="0.9" fill="#e5d9ef" opacity=".35"/><circle cx="160" cy="46" r="0.9" fill="#e5d9ef" opacity=".35"/><circle cx="287" cy="83" r="1.6" fill="#e5d9ef" opacity=".35"/><circle cx="414" cy="120" r="0.9" fill="#e5d9ef" opacity=".35"/><circle cx="541" cy="157" r="0.9" fill="#e5d9ef" opacity=".35"/><circle cx="28" cy="4" r="1.6" fill="#e5d9ef" opacity=".35"/><circle cx="155" cy="41" r="0.9" fill="#e5d9ef" opacity=".35"/><circle cx="451" cy="140" r="83" fill="#c09da4"/><ellipse cx="451" cy="147" rx="138" ry="23" fill="none" stroke="#a485b2" stroke-width="15" transform="rotate(-25 451 147)"/><path d="M0 314 77 259 209 307 331 267 475 310 640 265v95H0" fill="#30243f"/><circle cx="179" cy="223" r="15" fill="#d6c7d1"/><path d="m168 242 28-1 11 51-22 15-27-10z" fill="#bfb1ca"/><path d="m164 292-8 27m37-22 9 24" stroke="#bfb1ca" stroke-width="10"/><path d="m210 268 21-32" stroke="#c8bbd2" stroke-width="6"/><path d="m228 237 7 58m-6-56 47 10-40 14" fill="#adc998" stroke="#baca9f" stroke-width="3"/><rect width="640" height="360" fill="url(#shade)"/><text x="28" y="117" fill="#e5d9ef" font-family="Arial,sans-serif" font-size="25" font-weight="700" letter-spacing="1">SOMEWHERE BEYOND</text><text x="30" y="140" fill="#e5d9ef" opacity=".7" font-family="Arial,sans-serif" font-size="9" letter-spacing="3">EVERY STORY STARTS HERE</text><text x="609" y="23" text-anchor="end" fill="#fff" opacity=".4" font-family="Arial,sans-serif" font-size="8" letter-spacing="1">LIVESCOPE ORIGINAL · SAMPLE</text></svg>